<?xml version="1.0" encoding="UTF-8" standalone="no"?>
<!-- Created with Inkscape (http://www.inkscape.org/) -->

<svg
   xmlns:dc="http://purl.org/dc/elements/1.1/"
   xmlns:cc="http://creativecommons.org/ns#"
   xmlns:rdf="http://www.w3.org/1999/02/22-rdf-syntax-ns#"
   xmlns:svg="http://www.w3.org/2000/svg"
   xmlns="http://www.w3.org/2000/svg"
   xmlns:sodipodi="http://sodipodi.sourceforge.net/DTD/sodipodi-0.dtd"
   xmlns:inkscape="http://www.inkscape.org/namespaces/inkscape"
   width="210mm"
   height="210mm"
   viewBox="0 0 210 210"
   version="1.1"
   id="svg8"
   inkscape:version="0.92.5 (2060ec1f9f, 2020-04-08)"
   sodipodi:docname="icon.svg">
  <defs
     id="defs2" />
  <sodipodi:namedview
     id="base"
     pagecolor="#ffffff"
     bordercolor="#666666"
     borderopacity="1.0"
     inkscape:pageopacity="0.0"
     inkscape:pageshadow="2"
     inkscape:zoom="0.35"
     inkscape:cx="-407.14802"
     inkscape:cy="55.494291"
     inkscape:document-units="mm"
     inkscape:current-layer="layer1"
     showgrid="false"
     units="mm"
     height="210mm"
     inkscape:window-width="2560"
     inkscape:window-height="1390"
     inkscape:window-x="1920"
     inkscape:window-y="0"
     inkscape:window-maximized="1" />
  <metadata
     id="metadata5">
    <rdf:RDF>
      <cc:Work
         rdf:about="">
        <dc:format>image/svg+xml</dc:format>
        <dc:type
           rdf:resource="http://purl.org/dc/dcmitype/StillImage" />
        <dc:title></dc:title>
      </cc:Work>
    </rdf:RDF>
  </metadata>
  <g
     inkscape:label="Livello 1"
     inkscape:groupmode="layer"
     id="layer1"
     transform="translate(0,-86.99999)">
    <rect
       style="fill:#000000;fill-opacity:1;stroke:none;stroke-width:0.26410437;stroke-miterlimit:4;stroke-dasharray:none;stroke-opacity:1"
       id="rect817"
       width="210"
       height="210"
       x="0"
       y="86.999992" />
    <circle
       style="fill:#ffffff;fill-opacity:1;stroke:none;stroke-width:0.26458332;stroke-miterlimit:4;stroke-dasharray:none;stroke-opacity:1"
       id="path819"
       cx="105"
       cy="192"
       r="80" />
    <g
       transform="matrix(0.26458333,0,0,0.26458333,-2526.8961,-1192.6651)"
       id="g1750">
      <path
         style="fill:#000000;fill-opacity:1;stroke:none;stroke-width:0.11509244;stroke-miterlimit:4;stroke-dasharray:none;stroke-opacity:1"
         inkscape:transform-center-x="-0.45453199"
         inkscape:transform-center-y="-4.961472"
         d="m 545.77563,836.30836 -6.51299,-3.64353 -6.69378,3.29967 1.45259,-7.32014 -5.20666,-5.3465 7.41073,-0.88055 3.47589,-6.60399 3.1275,6.77592 7.35486,1.26501 -5.47782,5.06831 z"
         id="path946-5-7"
         inkscape:connector-curvature="0" />
      <path
         style="fill:#000000;fill-opacity:1;stroke:none;stroke-width:0.06842698;stroke-miterlimit:4;stroke-dasharray:none;stroke-opacity:1"
         inkscape:transform-center-x="-0.27030035"
         inkscape:transform-center-y="-2.94976"
         d="m 555.39439,747.9017 -3.87224,-2.16623 -3.97971,1.96179 0.86362,-4.35211 -3.09555,-3.17871 4.40596,-0.52352 2.06655,-3.92633 1.85942,4.02855 4.37277,0.7521 -3.2568,3.0133 z"
         id="path946-3-3-5"
         inkscape:connector-curvature="0" />
      <path
         style="fill:#000000;fill-opacity:1;stroke:none;stroke-width:0.10079417;stroke-miterlimit:4;stroke-dasharray:none;stroke-opacity:1"
         inkscape:transform-center-x="2.7314347"
         inkscape:transform-center-y="-2.0518099"
         d="m 497.95069,693.8516 -3.78997,5.32466 2.23773,6.14071 -6.23521,-1.95906 -5.14866,4.0258 -0.0636,-6.53543 -5.41979,-3.65263 6.1959,-2.08005 1.79906,-6.28325 3.89288,5.24988 z"
         id="path946-3-6-5-3"
         inkscape:connector-curvature="0" />
      <path
         style="fill:#000000;fill-opacity:1;stroke:none;stroke-width:0.07783636;stroke-miterlimit:4;stroke-dasharray:none;stroke-opacity:1"
         inkscape:transform-center-x="0.10565465"
         inkscape:transform-center-y="-3.5485665"
         d="m 478.32393,754.80215 -3.58249,3.55513 0.89766,4.96662 -4.48817,-2.30856 -4.44615,2.3885 0.80864,-4.98189 -3.64553,-3.49045 4.98795,-0.77043 2.19308,-4.54571 2.27408,4.50574 z"
         id="path946-3-6-7-6-5"
         inkscape:connector-curvature="0" />
      <path
         style="fill:#000000;fill-opacity:1;stroke:none;stroke-width:0.10319092;stroke-miterlimit:4;stroke-dasharray:none;stroke-opacity:1"
         inkscape:transform-center-x="1.4986816"
         inkscape:transform-center-y="3.3897239"
         d="m 433.72975,771.66895 -1.75719,6.45629 4.32235,5.10771 -6.68329,0.32391 -3.52204,5.68917 -2.37331,-6.2561 -6.49909,-1.5916 5.21651,-4.1904 -0.49463,-6.67283 5.5973,3.66629 z"
         id="path946-3-6-7-5-2-6"
         inkscape:connector-curvature="0" />
      <path
         style="fill:#000000;fill-opacity:1;stroke:none;stroke-width:0.067006;stroke-miterlimit:4;stroke-dasharray:none;stroke-opacity:1"
         inkscape:transform-center-x="7.1356832"
         inkscape:transform-center-y="-35.846067"
         d="m 498.86708,857.83794 -3.88646,-1.94242 -3.80341,2.10038 0.64637,-4.29648 -3.1729,-2.9682 4.28593,-0.71295 1.84245,-3.93484 2.00248,3.85585 4.3116,0.53634 -3.04833,3.09601 z"
         id="path946-3-6-7-5-3-9-2"
         inkscape:connector-curvature="0" />
      <path
         style="fill:#000000;fill-opacity:1;stroke:none;stroke-width:0.067006;stroke-miterlimit:4;stroke-dasharray:none;stroke-opacity:1"
         inkscape:transform-center-x="-2.2190108"
         inkscape:transform-center-y="0.60775626"
         d="m 490.90893,868.66434 3.97866,1.7458 3.6937,-2.28781 -0.43087,4.32341 3.31725,2.80595 -4.24495,0.92622 -1.64353,4.02198 -2.19266,-3.75097 -4.33301,-0.32023 2.88982,-3.24445 z"
         id="path946-3-6-7-5-3-5-1-9"
         inkscape:connector-curvature="0" />
      <path
         style="fill:#000000;fill-opacity:1;stroke:#000000;stroke-width:0.75174731;stroke-linecap:butt;stroke-linejoin:miter;stroke-miterlimit:4;stroke-dasharray:none;stroke-opacity:1"
         d="m 540.08099,817.57707 11.44116,-71.8416"
         id="path1040-2-1"
         inkscape:connector-curvature="0" />
      <path
         style="fill:#000000;fill-opacity:1;stroke:#000000;stroke-width:0.75174731;stroke-linecap:butt;stroke-linejoin:miter;stroke-miterlimit:4;stroke-dasharray:none;stroke-opacity:1"
         d="M 552.62612,742.17831 493.14467,700.29667"
         id="path1040-6-7-2"
         inkscape:connector-curvature="0" />
      <path
         style="fill:#000000;fill-opacity:1;stroke:#000000;stroke-width:0.75174731;stroke-linecap:butt;stroke-linejoin:miter;stroke-miterlimit:4;stroke-dasharray:none;stroke-opacity:1"
         d="M 536.55169,824.13053 490.68591,701.57071"
         id="path1040-6-2-0-7"
         inkscape:connector-curvature="0" />
      <path
         style="fill:#000000;fill-opacity:1;stroke:#000000;stroke-width:0.75174731;stroke-linecap:butt;stroke-linejoin:miter;stroke-miterlimit:4;stroke-dasharray:none;stroke-opacity:1"
         d="m 471.23774,759.2135 19.16098,-62.15872"
         id="path1040-6-2-9-93-0"
         inkscape:connector-curvature="0" />
      <path
         style="fill:#000000;fill-opacity:1;stroke:#000000;stroke-width:0.75174731;stroke-linecap:butt;stroke-linejoin:miter;stroke-miterlimit:4;stroke-dasharray:none;stroke-opacity:1"
         d="m 426.59597,781.03475 45.55051,-23.56086"
         id="path1040-6-2-9-1-6-9"
         inkscape:connector-curvature="0" />
      <path
         style="fill:#000000;fill-opacity:1;stroke:#000000;stroke-width:0.75174731;stroke-linecap:butt;stroke-linejoin:miter;stroke-miterlimit:4;stroke-dasharray:none;stroke-opacity:1"
         d="m 492.5169,851.74848 45.61798,-23.42999"
         id="path1040-6-2-9-1-2-0-3"
         inkscape:connector-curvature="0" />
      <path
         style="fill:#000000;fill-opacity:1;stroke:#000000;stroke-width:0.46315154;stroke-linecap:butt;stroke-linejoin:miter;stroke-miterlimit:4;stroke-dasharray:none;stroke-opacity:1"
         d="m 494.3505,853.82161 1.28169,19.44882"
         id="path1040-6-2-9-1-2-7-62-6"
         inkscape:connector-curvature="0" />
    </g>
    <g
       id="g1907"
       transform="matrix(1.1375245,0,0,1.1375245,-13.665847,-29.971306)">
      <path
         style="fill:#000000;fill-opacity:1;stroke:none;stroke-width:0.05454776;stroke-miterlimit:4;stroke-dasharray:none;stroke-opacity:1"
         inkscape:transform-center-x="-0.45453199"
         inkscape:transform-center-y="-4.961472"
         d="m 131.88389,219.68219 -3.08682,-1.72684 -3.1725,1.56387 0.68846,-3.46936 -2.46769,-2.53396 3.5123,-0.41733 1.64739,-3.12995 1.48227,3.21143 3.48581,0.59955 -2.59619,2.40211 z"
         id="path946-5-7-0"
         inkscape:connector-curvature="0" />
      <path
         style="fill:#000000;fill-opacity:1;stroke:none;stroke-width:0.03243079;stroke-miterlimit:4;stroke-dasharray:none;stroke-opacity:1"
         inkscape:transform-center-x="-0.27030035"
         inkscape:transform-center-y="-2.94976"
         d="m 136.44267,177.78209 -1.83523,-1.02668 -1.88618,0.92979 0.40931,-2.06267 -1.46712,-1.50654 2.08819,-0.24813 0.97943,-1.86087 0.88127,1.90932 2.07246,0.35646 -1.54355,1.42814 z"
         id="path946-3-3-5-6"
         inkscape:connector-curvature="0" />
      <path
         style="fill:#000000;fill-opacity:1;stroke:none;stroke-width:0.04777113;stroke-miterlimit:4;stroke-dasharray:none;stroke-opacity:1"
         inkscape:transform-center-x="2.7314347"
         inkscape:transform-center-y="-2.0518099"
         d="m 109.21738,152.16519 -1.79624,2.52361 1.06056,2.91037 -2.95516,-0.92849 -2.44019,1.90802 -0.0301,-3.09745 -2.5687,-1.73116 2.93653,-0.98583 0.85266,-2.97793 1.84502,2.48817 z"
         id="path946-3-6-5-3-2"
         inkscape:connector-curvature="0" />
      <path
         style="fill:#000000;fill-opacity:1;stroke:none;stroke-width:0.03689034;stroke-miterlimit:4;stroke-dasharray:none;stroke-opacity:1"
         inkscape:transform-center-x="0.10565465"
         inkscape:transform-center-y="-3.5485665"
         d="m 99.915334,181.05254 -1.697911,1.68495 0.425443,2.35391 -2.127156,-1.09413 -2.107241,1.13202 0.383253,-2.36115 -1.727789,-1.65429 2.364025,-0.36515 1.039405,-2.15442 1.077794,2.13548 z"
         id="path946-3-6-7-6-5-6"
         inkscape:connector-curvature="0" />
      <path
         style="fill:#000000;fill-opacity:1;stroke:none;stroke-width:0.04890706;stroke-miterlimit:4;stroke-dasharray:none;stroke-opacity:1"
         inkscape:transform-center-x="1.4986816"
         inkscape:transform-center-y="3.3897239"
         d="m 78.780041,189.04652 -0.832815,3.05994 2.048566,2.42078 -3.167527,0.15352 -1.669262,2.69637 -1.124824,-2.96507 -3.080226,-0.75433 2.472351,-1.98603 -0.234429,-3.16257 2.652826,1.73763 z"
         id="path946-3-6-7-5-2-6-1"
         inkscape:connector-curvature="0" />
      <path
         style="fill:#000000;fill-opacity:1;stroke:none;stroke-width:0.03175731;stroke-miterlimit:4;stroke-dasharray:none;stroke-opacity:1"
         inkscape:transform-center-x="7.1356832"
         inkscape:transform-center-y="-35.846067"
         d="m 109.65171,229.88608 -1.84198,-0.9206 -1.80262,0.99546 0.30635,-2.0363 -1.50379,-1.40677 2.03131,-0.3379 0.87322,-1.86491 0.94907,1.82747 2.04347,0.2542 -1.44475,1.46734 z"
         id="path946-3-6-7-5-3-9-2-8"
         inkscape:connector-curvature="0" />
      <path
         style="fill:#000000;fill-opacity:1;stroke:none;stroke-width:0.03175731;stroke-miterlimit:4;stroke-dasharray:none;stroke-opacity:1"
         inkscape:transform-center-x="-2.2190108"
         inkscape:transform-center-y="0.60775626"
         d="m 105.87996,235.01722 1.88568,0.82742 1.75062,-1.0843 -0.20421,2.04907 1.5722,1.32987 -2.01188,0.43898 -0.77895,1.90621 -1.03921,-1.77777 -2.05362,-0.15177 1.36963,-1.5377 z"
         id="path946-3-6-7-5-3-5-1-9-7"
         inkscape:connector-curvature="0" />
      <path
         style="fill:#000000;fill-opacity:1;stroke:#000000;stroke-width:1;stroke-linecap:butt;stroke-linejoin:miter;stroke-miterlimit:4;stroke-dasharray:none;stroke-opacity:1"
         d="m 129.18493,210.80455 5.42251,-34.04914"
         id="path1040-2-1-9"
         inkscape:connector-curvature="0" />
      <path
         style="fill:#000000;fill-opacity:1;stroke:#000000;stroke-width:1;stroke-linecap:butt;stroke-linejoin:miter;stroke-miterlimit:4;stroke-dasharray:none;stroke-opacity:1"
         d="m 135.13066,175.06951 -28.19108,-19.8497"
         id="path1040-6-7-2-2"
         inkscape:connector-curvature="0" />
      <path
         style="fill:#000000;fill-opacity:1;stroke:#000000;stroke-width:1;stroke-linecap:butt;stroke-linejoin:miter;stroke-miterlimit:4;stroke-dasharray:none;stroke-opacity:1"
         d="m 127.51223,213.91054 -21.73797,-58.0869"
         id="path1040-6-2-0-7-0"
         inkscape:connector-curvature="0" />
      <path
         style="fill:#000000;fill-opacity:1;stroke:#000000;stroke-width:1;stroke-linecap:butt;stroke-linejoin:miter;stroke-miterlimit:4;stroke-dasharray:none;stroke-opacity:1"
         d="m 96.556853,183.14329 9.081297,-29.45996"
         id="path1040-6-2-9-93-0-2"
         inkscape:connector-curvature="0" />
      <path
         style="fill:#000000;fill-opacity:1;stroke:#000000;stroke-width:1;stroke-linecap:butt;stroke-linejoin:miter;stroke-miterlimit:4;stroke-dasharray:none;stroke-opacity:1"
         d="m 75.399005,193.48541 21.588543,-11.1666"
         id="path1040-6-2-9-1-6-9-3"
         inkscape:connector-curvature="0" />
      <path
         style="fill:#000000;fill-opacity:1;stroke:#000000;stroke-width:1;stroke-linecap:butt;stroke-linejoin:miter;stroke-miterlimit:4;stroke-dasharray:none;stroke-opacity:1"
         d="m 106.64205,227 21.62052,-11.10458"
         id="path1040-6-2-9-1-2-0-3-7"
         inkscape:connector-curvature="0" />
      <path
         style="fill:#000000;fill-opacity:1;stroke:#000000;stroke-width:1;stroke-linecap:butt;stroke-linejoin:miter;stroke-miterlimit:4;stroke-dasharray:none;stroke-opacity:1"
         d="m 107.51108,227.98255 0.60746,9.21772"
         id="path1040-6-2-9-1-2-7-62-6-5"
         inkscape:connector-curvature="0" />
    </g>
  </g>
</svg>
